<svg width="1751" height="1755" xmlns="http://www.w3.org/2000/svg" xmlns:xlink="http://www.w3.org/1999/xlink" xml:space="preserve" overflow="hidden"><g transform="translate(-279 -527)"><g><path d="M1000.17 636.045C1084.99 551.222 1222.52 551.222 1307.34 636.045L1924.21 1252.91C2009.03 1337.73 2009.03 1475.26 1924.21 1560.08L1309.88 2174.4C1225.06 2259.23 1087.54 2259.23 1002.71 2174.4L385.848 1557.54C301.025 1472.72 301.025 1335.19 385.848 1250.37Z" stroke="#000000" stroke-width="82.5" stroke-linecap="butt" stroke-linejoin="miter" stroke-miterlimit="8" stroke-opacity="1" fill="#000000" fill-rule="evenodd" fill-opacity="1"/><path d="M1032.54 796.885C1099.63 729.798 1208.4 729.798 1275.49 796.885L1763.37 1284.76C1830.45 1351.85 1830.45 1460.62 1763.37 1527.71L1277.5 2013.57C1210.41 2080.66 1101.64 2080.66 1034.56 2013.57L546.677 1525.69C479.59 1458.61 479.59 1349.84 546.677 1282.75Z" stroke="#F7F1E1" stroke-width="82.5" stroke-linecap="butt" stroke-linejoin="miter" stroke-miterlimit="8" stroke-opacity="1" fill="none" fill-rule="evenodd"/><path d="M1072 1405C1072 1359.16 1109.16 1322 1155 1322 1200.84 1322 1238 1359.16 1238 1405 1238 1450.84 1200.84 1488 1155 1488 1109.16 1488 1072 1450.84 1072 1405Z" fill="#F7F1E1" fill-rule="evenodd" fill-opacity="1"/><path d="M1072 1073C1072 1027.16 1109.16 990 1155 990 1200.84 990 1238 1027.16 1238 1073 1238 1118.84 1200.84 1156 1155 1156 1109.16 1156 1072 1118.84 1072 1073Z" fill="#F7F1E1" fill-rule="evenodd" fill-opacity="1"/><path d="M1072 1737C1072 1691.16 1109.16 1654 1155 1654 1200.84 1654 1238 1691.16 1238 1737 1238 1782.84 1200.84 1820 1155 1820 1109.16 1820 1072 1782.84 1072 1737Z" fill="#F7F1E1" fill-rule="evenodd" fill-opacity="1"/><path d="M740 1405C740 1359.16 777.161 1322 823 1322 868.84 1322 906 1359.16 906 1405 906 1450.84 868.84 1488 823 1488 777.161 1488 740 1450.84 740 1405Z" fill="#F7F1E1" fill-rule="evenodd" fill-opacity="1"/><path d="M1404 1405C1404 1359.16 1441.16 1322 1487 1322 1532.84 1322 1570 1359.16 1570 1405 1570 1450.84 1532.84 1488 1487 1488 1441.16 1488 1404 1450.84 1404 1405Z" fill="#F7F1E1" fill-rule="evenodd" fill-opacity="1"/></g></g></svg>